<?xml version="1.0" encoding="UTF-8" standalone="no"?>
<!-- Created with Inkscape (http://www.inkscape.org/) -->

<svg
   xmlns:dc="http://purl.org/dc/elements/1.1/"
   xmlns:cc="http://creativecommons.org/ns#"
   xmlns:rdf="http://www.w3.org/1999/02/22-rdf-syntax-ns#"
   xmlns:svg="http://www.w3.org/2000/svg"
   xmlns="http://www.w3.org/2000/svg"
   xmlns:sodipodi="http://sodipodi.sourceforge.net/DTD/sodipodi-0.dtd"
   xmlns:inkscape="http://www.inkscape.org/namespaces/inkscape"
   width="210mm"
   height="297mm"
   viewBox="0 0 210 297"
   version="1.1"
   id="svg8"
   inkscape:version="0.92.3 (2405546, 2018-03-11)"
   sodipodi:docname="enlinstinct.svg">
  <defs
     id="defs2" />
  <sodipodi:namedview
     id="base"
     pagecolor="#ffffff"
     bordercolor="#666666"
     borderopacity="1.0"
     inkscape:pageopacity="0.0"
     inkscape:pageshadow="2"
     inkscape:zoom="0.7"
     inkscape:cx="509.11242"
     inkscape:cy="746.36922"
     inkscape:document-units="mm"
     inkscape:current-layer="layer1"
     showgrid="false"
     inkscape:window-width="1920"
     inkscape:window-height="1017"
     inkscape:window-x="1912"
     inkscape:window-y="-8"
     inkscape:window-maximized="1"
     inkscape:snap-global="false" />
  <metadata
     id="metadata5">
    <rdf:RDF>
      <cc:Work
         rdf:about="">
        <dc:format>image/svg+xml</dc:format>
        <dc:type
           rdf:resource="http://purl.org/dc/dcmitype/StillImage" />
        <dc:title />
      </cc:Work>
    </rdf:RDF>
  </metadata>
  <g
     inkscape:label="Layer 1"
     inkscape:groupmode="layer"
     id="layer1">
    <path
       style="fill:#00ff16;fill-opacity:1;stroke:none;stroke-width:0.26458332px;stroke-linecap:butt;stroke-linejoin:miter;stroke-opacity:1"
       d="m 175.86334,36.813115 c -3.49623,-1.577544 -8.09233,-2.418907 -12.96256,-3.371903 l -0.0668,-30.9722335 19.51067,15.7689025 -3.0736,9.220801 -1.60362,-1.002263 0.80181,-6.147197 -10.22306,-7.550364 v 17.706604 c 3.04676,0.85549 5.74303,2.411966 8.41899,4.009044 z"
       id="path852"
       inkscape:connector-curvature="0"
       sodipodi:nodetypes="ccccccccccc" />
    <path
       style="fill:#00ff16;fill-opacity:1;stroke:none;stroke-width:0.26458332px;stroke-linecap:butt;stroke-linejoin:miter;stroke-opacity:1"
       d="m 191.89771,27.269999 -7.37061,11.623064 c 4.44212,2.793166 8.75821,5.687158 12.75684,8.83512 l 12.14241,-6.047693 z m 1.37046,4.252455 11.33936,9.260416 -7.182,3.495911 c -2.61727,-2.32949 -5.48889,-4.557242 -8.55141,-6.708635 z"
       id="path854"
       inkscape:connector-curvature="0"
       sodipodi:nodetypes="cccccccccc" />
    <path
       style="fill:#00ff16;fill-opacity:1;stroke:none;stroke-width:0.26458332px;stroke-linecap:butt;stroke-linejoin:miter;stroke-opacity:1"
       d="m 192.22844,62.32729 c -2.35032,2.123935 -4.84587,4.16719 -8.31526,5.669423 l 8.74055,19.135264 11.38639,-19.938317 z m 1.74821,4.252455 6.3314,2.976562 -6.14226,10.347172 -4.91391,-9.30796 c 1.77056,-1.094044 3.45314,-2.298062 4.72477,-4.015774 z"
       id="path859"
       inkscape:connector-curvature="0"
       sodipodi:nodetypes="cccccccccc" />
    <path
       style="fill:#00ff16;fill-opacity:1;stroke:none;stroke-width:0.26458332px;stroke-linecap:butt;stroke-linejoin:miter;stroke-opacity:1"
       d="m 176.44808,70.926288 c -3.59788,1.51343 -7.68308,2.05225 -11.90625,2.3151 l -0.0945,70.587062 22.20609,-36.14397 -5.71689,-20.646952 -2.78757,1.37016 4.48847,17.623142 -12.09524,19.27679 -0.14174,-47.294272 c 2.86031,-0.075 5.4703,-0.65067 7.70126,-1.98438 z"
       id="path864"
       inkscape:connector-curvature="0"
       sodipodi:nodetypes="ccccccccccc" />
    <path
       style="fill:#00ff16;fill-opacity:1;stroke:none;stroke-width:0.26458332px;stroke-linecap:butt;stroke-linejoin:miter;stroke-opacity:1"
       d="m 126.50798,54.011855 5.05543,-0.04725 c 19.6766,-15.65362 40.09089,-15.938469 61.27938,-0.09449 l 3.11831,0.04725 -4.77195,3.354539 c -18.69407,-10.04052 -37.38814,-12.774149 -56.08222,1.039434 z"
       id="path866"
       inkscape:connector-curvature="0"
       sodipodi:nodetypes="ccccccc" />
    <path
       style="fill:#00ff16;fill-opacity:1;stroke:none;stroke-width:0.26458332px;stroke-linecap:butt;stroke-linejoin:miter;stroke-opacity:1"
       d="M 150.98193,55.429265 144.27285,60.343 c 12.97075,6.914193 24.07089,6.503093 37.79762,0 l -8.03199,-4.913735 c -7.31828,6.426693 -14.98244,6.800293 -23.05655,0 z"
       id="path868"
       inkscape:connector-curvature="0"
       sodipodi:nodetypes="ccccc" />
    <path
       style="fill:#ffef00;fill-opacity:1;stroke:none;stroke-width:0.22632541px;stroke-linecap:butt;stroke-linejoin:miter;stroke-opacity:1"
       d="m 126.32984,134.84955 -40.923552,70.75888 -41.266491,-70.53026 4.572463,1.0288 -8.28759,-16.63233 1.028802,-0.34294 43.724192,75.50281 43.824206,-75.07414 1.5575,-0.0143 -8.51621,16.61804 z"
       id="path839"
       inkscape:connector-curvature="0" />
    <path
       style="fill:#ffef00;fill-opacity:1;stroke:none;stroke-width:0.22632541px;stroke-linecap:butt;stroke-linejoin:miter;stroke-opacity:1"
       d="m 150.768,86.278544 4.32443,-8.123466 -50.93865,13.648971 1.30871,3.608341 44.45679,-12.973295 -1.65703,3.839449 z"
       id="path841"
       inkscape:connector-curvature="0" />
    <path
       style="fill:#ffef00;fill-opacity:1;stroke:none;stroke-width:0.22632541px;stroke-linecap:butt;stroke-linejoin:miter;stroke-opacity:1"
       d="M 22.992153,87.696011 20.705917,82.094743 62.715432,93.811681 63.229837,91.696917 17.562353,78.665395 20.534452,87.5817 Z"
       id="path843"
       inkscape:connector-curvature="0" />
    <path
       style="fill:#ffef00;fill-opacity:1;stroke:none;stroke-width:0.22632541px;stroke-linecap:butt;stroke-linejoin:miter;stroke-opacity:1"
       d="m 107.96825,147.83098 -16.853164,-10.34631 -5.375234,3.23322 -5.375229,-3.27364 -16.529845,10.99295 10.26548,-1.65702 -4.405267,9.90174 10.467551,-5.98146 5.738973,18.8335 5.173153,-19.27807 10.427132,6.38561 -4.08194,-9.69966 z"
       id="path845"
       inkscape:connector-curvature="0" />
    <path
       style="fill:#ffef00;fill-opacity:1;stroke:none;stroke-width:0.22632541px;stroke-linecap:butt;stroke-linejoin:miter;stroke-opacity:1"
       d="M 97.009015,80.894377 85.291813,97.355133 73.975095,82.437545 79.519185,100.38444 75.0612,98.212692 c 0,0 1.371827,4.115008 0.91458,3.714918 -0.457247,-0.40009 -9.430956,-2.514779 -9.430956,-2.514779 l 11.202659,8.859399 -6.45867,6.85873 7.601788,-1.3721 0.971609,2.74375 2.571804,-1.20014 -2.628825,5.08657 -1.65766,-4.85804 -11.774222,2.34327 8.344868,-9.54501 -13.088857,-8.801933 0.629021,2.286233 -37.894479,-12.17427 32.407418,23.09094 -14.346025,0.17151 24.234058,8.97345 -4.801019,3.08633 23.919324,13.34613 23.576754,-13.51763 -3.77195,-2.51478 21.71928,-9.20199 -13.88895,-0.34302 30.69273,-22.804938 -35.72272,11.545248 0.74307,-2.457755 -14.174521,9.201995 9.831011,9.77398 -12.002761,-2.57224 -1.486143,4.97252 -3.143803,-4.80101 2.629265,1.88619 0.228535,-4.00092 8.516378,1.65766 -6.801696,-7.14472 10.802615,-8.287405 -9.316472,2.343265 0.85756,-3.6579 -4.229897,1.82873 z m -11.551878,27.855263 1.923192,2.84163 -1.721181,19.95226 -2.263254,-19.88437 z"
       id="path847"
       inkscape:connector-curvature="0"
       sodipodi:nodetypes="cccccccccccccccccccccccccccccccccccccccccccccccccc" />
  </g>
</svg>
