<?xml version="1.0" encoding="UTF-8" standalone="no"?>
<!-- Created with Inkscape (http://www.inkscape.org/) -->

<svg
   xmlns:dc="http://purl.org/dc/elements/1.1/"
   xmlns:cc="http://creativecommons.org/ns#"
   xmlns:rdf="http://www.w3.org/1999/02/22-rdf-syntax-ns#"
   xmlns:svg="http://www.w3.org/2000/svg"
   xmlns="http://www.w3.org/2000/svg"
   xmlns:sodipodi="http://sodipodi.sourceforge.net/DTD/sodipodi-0.dtd"
   xmlns:inkscape="http://www.inkscape.org/namespaces/inkscape"
   width="48"
   height="48"
   viewBox="0 0 12.7 12.7"
   version="1.1"
   id="svg8"
   inkscape:version="0.92.3 (2405546, 2018-03-11)"
   sodipodi:docname="eyeSplat.svg"
   inkscape:export-filename="C:\Users\Travis\Desktop\eyeSplat.png"
   inkscape:export-xdpi="96"
   inkscape:export-ydpi="96">
  <defs
     id="defs2">
    <inkscape:path-effect
       effect="spiro"
       id="path-effect841"
       is_visible="true" />
  </defs>
  <sodipodi:namedview
     id="base"
     pagecolor="#ffffff"
     bordercolor="#666666"
     borderopacity="1.0"
     inkscape:pageopacity="0.0"
     inkscape:pageshadow="2"
     inkscape:zoom="1.4142136"
     inkscape:cx="-39.418442"
     inkscape:cy="-5.0393158"
     inkscape:document-units="mm"
     inkscape:current-layer="layer3"
     showgrid="false"
     inkscape:window-width="1920"
     inkscape:window-height="1017"
     inkscape:window-x="1912"
     inkscape:window-y="-8"
     inkscape:window-maximized="1"
     units="px"
     inkscape:snap-global="false" />
  <metadata
     id="metadata5">
    <rdf:RDF>
      <cc:Work
         rdf:about="">
        <dc:format>image/svg+xml</dc:format>
        <dc:type
           rdf:resource="http://purl.org/dc/dcmitype/StillImage" />
        <dc:title />
      </cc:Work>
    </rdf:RDF>
  </metadata>
  <g
     inkscape:groupmode="layer"
     id="layer2"
     inkscape:label="Splats"
     style="display:inline">
    <path
       sodipodi:type="star"
       style="opacity:1;fill:#000000;fill-opacity:1;stroke:none;stroke-width:1;stroke-linecap:butt;stroke-miterlimit:4;stroke-dasharray:none;stroke-opacity:1"
       id="path999"
       sodipodi:sides="8"
       sodipodi:cx="1.3563927"
       sodipodi:cy="1.0069582"
       sodipodi:r1="1.5388682"
       sodipodi:r2="0.78482276"
       sodipodi:arg1="0.63438282"
       sodipodi:arg2="1.0270819"
       inkscape:flatsided="false"
       inkscape:rounded="0.55"
       inkscape:randomized="0.11"
       d="M 2.6921884,2.0218275 C 2.3910751,2.4179308 2.2266096,1.2361536 1.8258209,1.5298235 1.4250323,1.8234935 2.1552324,2.4937741 1.7062337,2.5437236 1.2572351,2.5936732 1.6150129,1.6798476 1.1223158,1.6268268 0.62961875,1.573806 0.94405955,2.4025591 0.55814987,2.1348002 0.1722402,1.8670413 0.94851472,1.7327191 0.72152225,1.3030529 0.49452978,0.87338675 -0.11951462,1.6992767 -0.26692512,1.2397163 -0.41433563,0.78015592 0.63480327,1.3727277 0.68734041,0.89748599 0.73987755,0.42224427 -0.1520046,0.63921123 0.06377919,0.24223734 0.27956297,-0.15473655 0.74247117,0.64757845 1.0980271,0.35766185 1.453583,0.06774524 0.52935572,-0.5013175 1.0311289,-0.50265431 c 0.5017733,-0.001337 0.09484,0.5422755 0.5842664,0.60759266 C 2.1048212,0.1702555 1.9290661,-0.52618659 2.3653497,-0.27656164 2.8016334,-0.02693668 1.8002928,0.37142615 2.0161889,0.76726323 2.2320849,1.1631003 2.6803776,0.20835559 2.7180646,0.65868696 2.7557516,1.1090183 2.1210369,0.83674942 2.0682733,1.299846 2.0155097,1.7629426 2.9933018,1.6257241 2.6921884,2.0218275 Z"
       inkscape:transform-center-x="0.011888573"
       inkscape:transform-center-y="-0.028436134"
       transform="matrix(0.69137547,0,0,0.62408639,0.91884508,1.8749795)" />
    <path
       style="display:inline;opacity:1;fill:#000000;fill-opacity:1;stroke:none;stroke-width:1.7448864;stroke-linecap:butt;stroke-miterlimit:4;stroke-dasharray:none;stroke-opacity:1"
       d="m 8.5139594,1.131622 c -0.03193,-0.00482 -0.07197,-0.00361 -0.121441,0.00413 -0.79153,0.1238438 0.110992,1.678662 -0.646989,1.8226279 -0.757981,0.1439656 -0.152328,-1.8992861 -0.869714,-1.6639813 -0.717386,0.2353051 0.913416,1.5844083 0.275952,1.892391 -0.156445,0.075585 -0.308575,0.030861 -0.456819,-0.072347 -0.0059,0.00677 -0.0069,0.012688 -0.01395,0.019637 C 6.1999884,3.608517 5.2534839,2.3440298 4.8805909,2.8782852 4.5076999,3.4125409 6.7939674,3.0625321 6.5766124,3.6281104 6.3592604,4.1936885 4.5275439,3.7457926 4.4723489,4.3298762 c -0.0034,0.036305 3.07e-4,0.067088 0.0093,0.093018 0.576308,-0.1916187 1.2030035,-0.3100586 1.8732715,-0.3100586 1.242508,0 2.331046,0.4078337 3.229777,0.9374105 C 10.083648,4.8237297 11.344724,5.5968602 11.684827,5.1339621 12.012534,4.6879308 10.585683,4.6541922 10.357774,4.2890521 10.085126,4.3091213 9.8716134,4.2750623 9.8125874,4.1009498 9.6133104,3.5131459 12.152482,3.6349645 11.756136,3.085508 11.359793,2.5360513 10.531547,3.9396 10.009474,3.4989195 9.4874014,3.0582388 11.371498,2.4707722 10.813558,2.0778176 10.255621,1.6848629 9.5837354,3.243754 8.8689744,2.9692358 8.1542134,2.6947177 9.8572804,1.4868688 9.1159894,1.2685645 8.3746984,1.0502603 9.0402764,2.9245726 8.3113864,2.7589127 7.6280524,2.6036071 8.9928734,1.2039422 8.5139594,1.131622 Z m 1.8438146,3.1574301 c 0.258387,-0.01902 0.566684,-0.084186 0.85576,-0.1333254 -0.380201,-0.1713021 -0.76169,-0.3061954 -0.867648,-0.059428 -0.03172,0.073887 -0.02291,0.1369944 0.01189,0.1927532 z m 0.85576,-0.1333254 C 11.692663,4.371601 12.170022,4.6472918 12.092552,4.3081722 12.033766,4.0508493 11.649208,4.0816685 11.213534,4.1557267 Z M 6.6949484,3.1144466 c 0.152789,-0.1760048 -0.08172,-0.2916828 -0.39946,-0.3896402 0.130575,0.1488942 0.263136,0.2947331 0.39946,0.3896402 z m -0.39946,-0.3896402 c -0.306003,-0.34894 -0.598283,-0.7166057 -0.88315,-0.5069457 -0.3255435,0.2395982 0.37899,0.3515175 0.88315,0.5069457 z M 10.383094,5.58303 c 0.115843,0.087348 0.229148,0.1745054 0.335381,0.2625161 0.08093,-0.1498216 -0.08953,-0.217346 -0.335381,-0.2625161 z"
       id="path942-2"
       inkscape:connector-curvature="0" />
    <path
       style="display:inline;opacity:1;fill:#000000;fill-opacity:1;stroke:none;stroke-width:2.28699708;stroke-linecap:butt;stroke-miterlimit:4;stroke-dasharray:none;stroke-opacity:1"
       d="M 3.8958738,1.8044335 C 3.4107608,1.8237275 4.0111187,2.7520165 3.5672116,3.0761906 3.1233048,3.4003647 2.7867125,1.6929955 2.4143106,2.073151 2.0419085,2.4533064 3.431275,2.8093581 3.127962,3.2622258 2.824649,3.7150935 2.3852213,3.0715591 2.2132892,3.6311954 2.0413572,4.1908318 2.9061845,3.3399135 3.0044553,3.86684 3.1027263,4.3937667 1.7563604,4.1197777 2.0649778,4.5856592 2.3735952,5.0515407 3.1652299,4.0091707 3.5134684,4.4399317 3.5757694,4.5169967 3.5901664,4.5983912 3.5770304,4.6812605 3.9328444,4.5080828 4.3093092,4.3551854 4.7128784,4.2435611 4.8351821,4.1095332 5.041438,4.1072192 5.2549642,4.1205711 5.4729104,4.0813661 5.6960015,4.0530461 5.9252074,4.0389221 5.9629558,4.0038501 5.9930881,3.9579281 6.0120238,3.8957783 6.1743723,3.3629238 5.132244,3.9791953 5.0239704,3.4529118 4.9156968,2.9266283 6.1970543,3.4084901 5.9401933,2.9407983 5.6833324,2.4731065 5.0594603,3.4403803 4.6648191,3.071023 4.270178,2.7016655 5.3869014,2.2053424 4.9645423,1.8912499 4.5421834,1.5771575 4.8416582,2.8671423 4.3366739,2.7656153 3.8316894,2.6640881 4.3809868,1.7851399 3.8958738,1.8044335 Z"
       id="path944-1"
       inkscape:connector-curvature="0" />
  </g>
  <g
     inkscape:label="Eyelid"
     inkscape:groupmode="layer"
     id="layer1"
     transform="translate(0,-284.3)"
     style="display:inline">
    <path
       style="fill:none;fill-opacity:1;stroke:#000000;stroke-width:0.97133714;stroke-linecap:butt;stroke-linejoin:miter;stroke-miterlimit:4;stroke-dasharray:none;stroke-opacity:1"
       d="m 0.41283262,291.6519 c 0,0 2.34547448,-3.38546 5.93906048,-3.38546 3.5935864,0 5.9390609,3.38546 5.9390609,3.38546"
       id="path925"
       inkscape:connector-curvature="0"
       sodipodi:nodetypes="czc" />
    <path
       style="fill:none;fill-opacity:1;stroke:#000000;stroke-width:0.9701488;stroke-linecap:butt;stroke-linejoin:miter;stroke-miterlimit:4;stroke-dasharray:none;stroke-opacity:1"
       d="m 0.43020323,291.12482 c 0,0 2.33915987,3.9156 5.92307077,3.9156 3.5839119,0 5.923072,-3.9156 5.923072,-3.9156"
       id="path925-6"
       inkscape:connector-curvature="0"
       sodipodi:nodetypes="czc" />
  </g>
  <g
     inkscape:groupmode="layer"
     id="layer3"
     inkscape:label="Iris"
     style="display:inline">
    <path
       sodipodi:type="star"
       style="opacity:1;fill:#000000;fill-opacity:1;stroke:none;stroke-width:0.86681217;stroke-linecap:butt;stroke-miterlimit:4;stroke-dasharray:none;stroke-opacity:1"
       id="path835"
       sodipodi:sides="31"
       sodipodi:cx="6.3274384"
       sodipodi:cy="4.2510552"
       sodipodi:r1="3.4993758"
       sodipodi:r2="2.9044819"
       sodipodi:arg1="0.52359878"
       sodipodi:arg2="0.62494048"
       inkscape:flatsided="false"
       inkscape:rounded="0.23"
       inkscape:randomized="0.037"
       d="M 9.4159317,6.069363 C 9.3302201,6.1997322 8.67695,5.9340204 8.5811029,6.0576866 8.4852557,6.1813527 8.9658199,6.4952059 8.8573866,6.6051696 8.7489533,6.7151334 8.5105276,6.2369315 8.3954512,6.341088 8.2803749,6.4452444 8.5873194,7.0816035 8.4619781,7.1742963 8.3366368,7.266989 7.9414579,6.7301079 7.808399,6.8057186 7.6753401,6.8813294 7.8469031,7.240669 7.7041175,7.3044908 7.5613319,7.3683127 7.3771807,6.8379146 7.234665,6.89682 7.0921493,6.9557255 7.3844335,7.579928 7.2329047,7.6099299 7.0813758,7.6399317 6.9539265,7.0404544 6.7978614,7.0649616 6.6417962,7.0894687 6.6399222,7.751032 6.4846936,7.7562667 6.329465,7.7615015 6.278207,7.2782284 6.1219412,7.2682292 5.9656755,7.25823 5.9187067,7.6850785 5.7640804,7.6516898 5.6094541,7.618301 5.5755437,7.1904767 5.4233548,7.1541226 5.2711658,7.1177685 5.2187851,7.4889595 5.0690953,7.439475 4.9194055,7.3899905 5.1365824,6.9300032 4.9977362,6.860199 4.8588901,6.7903948 4.4482722,7.3119808 4.3143821,7.2325457 4.1804919,7.1531106 4.5388794,6.4985156 4.4141647,6.4040614 4.28945,6.3096071 4.0288045,6.982177 3.9169436,6.8728991 3.8050827,6.7636211 4.2352335,6.1689207 4.1423849,6.0429853 4.0495363,5.9170498 3.4877231,6.3606854 3.3961271,6.2361829 3.304531,6.1116805 3.8937995,5.6729384 3.8161667,5.5366799 3.7385339,5.4004215 3.0315286,5.8203616 2.9665133,5.6792905 2.9014979,5.5382193 3.5672095,5.3024132 3.5297181,5.1491685 3.4922266,4.9959238 2.9466484,4.9577876 2.9207946,4.8020533 2.8949408,4.646319 3.5811448,4.6838607 3.5608037,4.5285105 3.5404625,4.3731603 2.8504561,4.2277463 2.8608031,4.0741542 2.8711501,3.9205622 3.3315525,4.0092291 3.3484978,3.8560304 3.365443,3.7028317 2.7612614,3.6123049 2.789388,3.4572291 2.8175146,3.3021534 3.5854831,3.6025429 3.6298593,3.4512119 3.6742354,3.299881 3.0241308,2.9048273 3.0898272,2.7655726 3.1555236,2.626318 3.7295447,2.9266424 3.8120607,2.7945638 3.8945767,2.6624852 3.4993774,2.400978 3.5882406,2.2750209 3.6771037,2.1490638 4.171412,2.3120956 4.2749421,2.1944089 4.3784722,2.0767223 3.9277453,1.728338 4.0444941,1.6261234 4.1612428,1.5239088 4.3922214,1.9958385 4.5109077,1.8971237 4.6295941,1.7984089 4.2777103,1.3874572 4.4068231,1.3053742 4.535936,1.2232913 4.8606694,1.5620204 4.9994364,1.4962606 5.1382034,1.4305009 4.9217503,0.91353841 5.0665176,0.8549943 5.2112849,0.7964502 5.5344994,1.5292685 5.6857495,1.4851605 5.8369996,1.4410525 5.7102879,0.73511042 5.8652094,0.71476769 6.0201309,0.69442495 6.1309516,1.3732932 6.2868439,1.3731449 6.4427362,1.3729966 6.4571703,0.79107213 6.614625,0.79317149 6.7720798,0.79527085 6.7027114,1.4435817 6.8591388,1.4680323 7.0155663,1.4924828 7.1409645,0.91301483 7.2895892,0.94996604 7.4382139,0.98691725 7.324411,1.5916387 7.4661604,1.6541775 7.6079098,1.7167163 7.8671529,1.0451621 8.0024846,1.1188345 8.1378163,1.192507 7.8617976,1.7738907 7.9943839,1.8501087 8.1269702,1.9263267 8.3264208,1.5224847 8.4498254,1.6218441 8.57323,1.7212035 8.2916806,2.0746466 8.402098,2.1874894 8.5125153,2.3003323 8.8530464,1.8151158 8.9534379,1.9341127 9.0538294,2.0531095 8.7669256,2.4763149 8.8533161,2.6043286 8.9397067,2.7323422 9.3788215,2.5796329 9.4586081,2.7151849 9.5383948,2.850737 9.0482852,3.1161299 9.1097707,3.2592316 9.1712563,3.4023332 9.6553712,3.0019018 9.6975338,3.1506863 9.7396964,3.2994709 9.2233355,3.6764469 9.2533395,3.8283511 9.2833435,3.9802552 9.9128325,3.7585567 9.9213706,3.9117632 9.9299088,4.0649698 9.1725209,4.0613738 9.1635692,4.2195451 9.1546175,4.3777163 9.8655039,4.4255018 9.8447864,4.5802384 9.8240689,4.7349749 9.2281285,4.7174332 9.1996166,4.8700538 9.1711048,5.0226744 9.7055775,5.0863641 9.6502698,5.2330342 9.5949621,5.3797043 8.9360172,5.2395252 8.8747695,5.3803035 8.8135218,5.5210819 9.5016432,5.9389938 9.4159317,6.069363 Z"
       transform="matrix(-0.12235549,-0.77809248,0.8039467,-0.11462952,3.6640675,12.720487)"
       inkscape:transform-center-x="-0.12294906"
       inkscape:transform-center-y="-0.68272096" />
    <circle
       style="opacity:1;fill:#fcfcfc;fill-opacity:1;stroke:none;stroke-width:0.70426327;stroke-linecap:butt;stroke-miterlimit:4;stroke-dasharray:none;stroke-opacity:1"
       id="path837"
       cx="5.0007172"
       cy="6.0937848"
       r="0.8484956" />
    <path
       sodipodi:type="star"
       style="opacity:1;fill:#000000;fill-opacity:1;stroke:none;stroke-width:1;stroke-linecap:butt;stroke-miterlimit:4;stroke-dasharray:none;stroke-opacity:1"
       id="path868"
       sodipodi:sides="16"
       sodipodi:cx="10.252604"
       sodipodi:cy="10.087239"
       sodipodi:r1="2.3210025"
       sodipodi:r2="1.1372912"
       sodipodi:arg1="0.71480857"
       sodipodi:arg2="0.91115811"
       inkscape:flatsided="false"
       inkscape:rounded="0.33"
       inkscape:randomized="0.11"
       d="m 12.099718,11.429968 c -0.296995,0.275127 -0.842363,-0.460424 -1.203499,-0.240792 -0.361135,0.219632 0.523315,0.61671 0.185304,0.807574 -0.338012,0.190864 -0.275725,-0.810145 -0.652273,-0.644151 -0.376548,0.165994 0.2127,1.055463 -0.175838,1.147785 -0.3885376,0.09232 0.227602,-1.374818 -0.154208,-1.399027 -0.3818111,-0.02421 -0.05194,1.472124 -0.4208174,1.314179 C 9.309506,12.257592 10.071858,11.14392 9.6835411,10.999794 9.2952237,10.855668 9.0426077,12.194135 8.7139003,11.983072 8.385193,11.772009 9.5915868,11.202488 9.3608507,10.874024 9.1301146,10.54556 8.0485256,11.300763 7.9262102,10.920134 7.8038948,10.539505 9.0744047,10.609141 9.0121081,10.220194 8.9498114,9.8312463 8.0928961,10.751278 8.0593437,10.366581 8.0257913,9.9818842 9.2656007,10.265183 9.2957344,9.8760866 9.3258681,9.4869903 7.9545595,9.6381359 8.0902039,9.2752432 8.2258482,8.9123506 9.1814924,9.7722357 9.3838096,9.3999057 9.5861267,9.0275758 8.3421846,9.019367 8.5905772,8.6765033 8.8389698,8.3336396 9.4274161,9.1869492 9.7940839,8.973834 10.160752,8.7607187 8.7325384,8.2606939 9.0981518,8.1097216 9.4637652,7.9587493 9.3987204,8.8943905 9.7509413,8.741446 10.103162,8.5885015 9.5328333,7.8374638 9.9537892,7.8417708 c 0.4209558,0.00431 0.2563188,1.2483639 0.6648208,1.3424894 0.408502,0.094125 0.06174,-1.146896 0.448344,-1.0784961 0.38661,0.0684 -0.635984,0.7513635 -0.26256,0.9043038 0.373423,0.1529402 0.921464,-1.1895839 1.172001,-0.8866684 0.250536,0.3029155 -0.889121,0.8131976 -0.646951,1.1090482 0.24217,0.2958505 0.779559,-0.6448591 0.952073,-0.2769353 0.172514,0.3679239 -1.133814,0.232041 -1.086424,0.6558285 0.04739,0.4237871 1.422645,-0.2688074 1.435858,0.1285494 0.01321,0.3973567 -1.173306,0.3422457 -1.208863,0.7261787 -0.03556,0.383932 1.32253,-0.127132 1.233049,0.269368 -0.08948,0.396499 -1.146024,-0.659646 -1.321125,-0.303808 -0.1751,0.355838 1.0627,0.723212 0.765706,0.998339 z"
       inkscape:transform-center-x="-0.03172811"
       inkscape:transform-center-y="-0.12835635"
       transform="matrix(0.97358615,0,0,0.9459859,-0.43598101,0.22042699)" />
    <circle
       style="display:inline;opacity:1;fill:#fcfcfc;fill-opacity:1;stroke:none;stroke-width:0.25441495;stroke-linecap:butt;stroke-miterlimit:4;stroke-dasharray:none;stroke-opacity:1"
       id="path837-6"
       cx="6.1894627"
       cy="5.4458637"
       r="0.30651885" />
  </g>
  <g
     inkscape:groupmode="layer"
     id="layer4"
     inkscape:label="Iris 1" />
</svg>
