<?xml version="1.0" encoding="UTF-8" standalone="no"?>
<!-- Created with Inkscape (http://www.inkscape.org/) -->

<svg
   xmlns:dc="http://purl.org/dc/elements/1.1/"
   xmlns:cc="http://creativecommons.org/ns#"
   xmlns:rdf="http://www.w3.org/1999/02/22-rdf-syntax-ns#"
   xmlns:svg="http://www.w3.org/2000/svg"
   xmlns="http://www.w3.org/2000/svg"
   xmlns:sodipodi="http://sodipodi.sourceforge.net/DTD/sodipodi-0.dtd"
   xmlns:inkscape="http://www.inkscape.org/namespaces/inkscape"
   width="210mm"
   height="297mm"
   viewBox="0 0 210 297"
   version="1.1"
   id="svg8"
   inkscape:version="0.92.3 (2405546, 2018-03-11)"
   sodipodi:docname="guitarAxe.svg">
  <defs
     id="defs2" />
  <sodipodi:namedview
     id="base"
     pagecolor="#ffffff"
     bordercolor="#666666"
     borderopacity="1.0"
     inkscape:pageopacity="0.0"
     inkscape:pageshadow="2"
     inkscape:zoom="0.7"
     inkscape:cx="296.20427"
     inkscape:cy="680.44597"
     inkscape:document-units="mm"
     inkscape:current-layer="layer2"
     showgrid="false"
     inkscape:snap-global="false"
     inkscape:window-width="1920"
     inkscape:window-height="1017"
     inkscape:window-x="1912"
     inkscape:window-y="-8"
     inkscape:window-maximized="1" />
  <metadata
     id="metadata5">
    <rdf:RDF>
      <cc:Work
         rdf:about="">
        <dc:format>image/svg+xml</dc:format>
        <dc:type
           rdf:resource="http://purl.org/dc/dcmitype/StillImage" />
        <dc:title></dc:title>
      </cc:Work>
    </rdf:RDF>
  </metadata>
  <g
     inkscape:groupmode="layer"
     id="layer2"
     inkscape:label="Guitar">
    <rect
       style="opacity:1;fill:#ff7e00;fill-opacity:1;stroke:none;stroke-width:0.50170171;stroke-linecap:round;stroke-linejoin:round;stroke-miterlimit:4;stroke-dasharray:none;stroke-opacity:1;paint-order:normal"
       id="rect827"
       width="9.307663"
       height="158.37202"
       x="-96.711891"
       y="-196.45834"
       rx="2.3030892e-017"
       transform="scale(-1)" />
    <path
       style="fill:#ff005f;fill-opacity:1;stroke:none;stroke-width:0.26458332px;stroke-linecap:butt;stroke-linejoin:miter;stroke-opacity:1"
       d="m 97.769044,106.80272 c 2.280746,-1.92895 4.375346,-2.96736 6.102856,-2.88875 4.33212,0.19713 10.1254,5.14837 8.60232,21.38966 3.19158,-1.07144 6.38641,-4.26178 6.56189,-12.2525 1.20579,-9.37961 -3.80176,-16.499816 -6.07124,-24.615696 3.49815,-9.917614 9.18159,-17.493864 10.39434,-29.860124 -1.14026,-16.13946 -15.1859,-20.17235 -25.662261,-20.46393 z"
       id="path829"
       inkscape:connector-curvature="0"
       sodipodi:nodetypes="cscccccc" />
    <path
       style="fill:#ff005f;fill-opacity:1;stroke:none;stroke-width:0.26458332px;stroke-linecap:butt;stroke-linejoin:miter;stroke-opacity:1"
       d="m 86.066265,100.66807 c -1.572206,-2.660205 -2.794953,-5.800915 -6.414471,-5.646065 -5.706458,0.19923 -7.38058,3.3555 -9.187389,6.414465 -1.448827,3.12628 -2.065947,6.26421 -1.336347,10.49033 -2.175296,-1.66777 -4.475712,-3.0905 -4.576989,-8.81989 -0.127923,-6.506305 5.863756,-11.244975 5.980154,-18.675455 -0.336469,-9.442094 -9.198257,-18.539584 -9.354433,-29.332834 0.313449,-10.0578 5.171036,-15.50463 14.051221,-16.86971 l 10.831131,-0.0115 z"
       id="path831"
       inkscape:connector-curvature="0"
       sodipodi:nodetypes="cccccccccc" />
    <path
       style="fill:#72ff00;fill-opacity:1;stroke:none;stroke-width:0.26458332px;stroke-linecap:butt;stroke-linejoin:miter;stroke-opacity:1"
       d="M 97.56234,196.48937 H 86.979007 l -3.260045,5.71689 2.441786,17.24495 -2.1583,9.40237 3.509494,-0.0214 3.05784,-3.33317 9.165924,-26.69457 z"
       id="path833"
       inkscape:connector-curvature="0"
       sodipodi:nodetypes="ccccccccc" />
    <rect
       style="opacity:1;fill:#8e00ff;fill-opacity:1;stroke:none;stroke-width:0.5;stroke-linecap:round;stroke-linejoin:round;stroke-miterlimit:4;stroke-dasharray:none;stroke-opacity:1;paint-order:normal"
       id="rect852"
       width="22.584274"
       height="5.4790254"
       x="80.84903"
       y="52.982922"
       rx="2.2446352e-017" />
    <rect
       style="opacity:1;fill:#8e00ff;fill-opacity:1;stroke:none;stroke-width:0.5;stroke-linecap:round;stroke-linejoin:round;stroke-miterlimit:4;stroke-dasharray:none;stroke-opacity:1;paint-order:normal"
       id="rect852-0"
       width="22.584274"
       height="5.4790254"
       x="80.745064"
       y="60.6712"
       rx="2.2446352e-017" />
    <rect
       style="opacity:1;fill:#8e00ff;fill-opacity:1;stroke:none;stroke-width:0.3076643;stroke-linecap:round;stroke-linejoin:round;stroke-miterlimit:4;stroke-dasharray:none;stroke-opacity:1;paint-order:normal"
       id="rect852-8"
       width="16.536655"
       height="2.8331921"
       x="83.768875"
       y="69.648132"
       rx="1.6435665e-017" />
    <rect
       style="opacity:1;fill:#8e00ff;fill-opacity:1;stroke:none;stroke-width:0.46307176;stroke-linecap:round;stroke-linejoin:round;stroke-miterlimit:4;stroke-dasharray:none;stroke-opacity:1;paint-order:normal"
       id="rect852-7"
       width="19.371477"
       height="5.4790254"
       x="82.634949"
       y="78.719559"
       rx="1.9253175e-017" />
  </g>
</svg>
